<?xml version="1.0" standalone="no"?>
<!DOCTYPE svg PUBLIC "-//W3C//DTD SVG 20010904//EN"
 "http://www.w3.org/TR/2001/REC-SVG-20010904/DTD/svg10.dtd">
<svg version="1.0" xmlns="http://www.w3.org/2000/svg"
 width="700.000000pt" height="700.000000pt" viewBox="0 0 700.000000 700.000000"
 preserveAspectRatio="xMidYMid meet">
<metadata>
Created by potrace 1.14, written by Peter Selinger 2001-2017
</metadata>
<g transform="translate(0.000000,700.000000) scale(0.100000,-0.100000)"
fill="#000000" stroke="none">
<path d="M0 3500 l0 -3500 3500 0 3500 0 0 3500 0 3500 -3500 0 -3500 0 0
-3500z m6193 3116 c48 -8 121 -25 162 -37 l75 -22 0 -97 0 -97 -88 33 c-117
44 -203 58 -326 52 -187 -9 -297 -82 -352 -233 -28 -76 -25 -251 5 -327 29
-75 98 -150 166 -182 93 -45 226 -54 343 -24 l42 11 0 123 0 124 -95 0 -95 0
0 80 0 80 225 0 225 0 0 -256 0 -255 -46 -20 c-154 -69 -441 -99 -615 -65
-229 45 -391 188 -444 392 -20 77 -20 252 0 329 46 176 189 315 380 371 124
36 292 43 438 20z m-5275 -48 c6 -24 43 -182 82 -353 39 -170 73 -318 76 -327
8 -25 33 -22 39 5 3 12 39 171 81 352 41 182 77 338 80 348 5 15 19 17 118 17
l113 0 84 -367 c64 -280 88 -368 100 -371 13 -2 31 65 100 365 l85 368 108 3
107 3 -6 -33 c-4 -18 -55 -242 -114 -498 l-106 -465 -140 0 -139 0 -58 250
c-120 519 -119 515 -137 515 -13 0 -27 -50 -74 -258 -33 -141 -72 -314 -89
-384 l-30 -128 -139 0 c-76 0 -139 3 -139 6 0 7 -219 954 -226 977 -5 15 4 17
104 17 l110 0 10 -42z m3122 -1358 l0 -90 -190 0 -190 0 0 -450 0 -450 -135 0
-135 0 0 450 0 450 -190 0 -190 0 0 90 0 90 515 0 515 0 0 -90z m-2413 -149
c54 -39 76 -88 70 -159 -2 -31 -10 -71 -17 -87 -12 -29 -10 -36 60 -158 40
-70 75 -127 79 -127 3 1 40 59 81 131 l75 130 0 83 c0 73 3 87 27 124 35 52
67 73 121 79 50 5 91 -17 132 -71 39 -51 46 -144 16 -206 -11 -24 -21 -58 -21
-76 0 -48 -46 -268 -73 -354 -29 -89 -74 -203 -97 -245 -9 -16 -29 -52 -44
-80 -102 -183 -276 -346 -450 -420 -36 -15 -66 -34 -66 -42 0 -30 -43 -95 -80
-121 l-39 -27 -1 -902 0 -903 -75 0 -75 0 0 905 c0 571 -4 905 -10 905 -5 0
-26 17 -47 38 -34 33 -49 58 -66 113 -3 9 -36 31 -73 48 -243 114 -443 370
-554 710 -39 119 -80 316 -80 385 0 24 -7 38 -28 53 -93 68 -78 224 25 274 61
29 113 19 163 -31 44 -44 60 -107 41 -160 -10 -29 -5 -40 56 -148 37 -64 76
-134 87 -155 l20 -38 64 127 64 127 -18 38 c-50 113 17 243 126 243 101 0 163
-94 139 -209 l-10 -50 78 -137 c43 -75 82 -133 86 -129 4 5 34 61 65 126 l58
118 -23 46 c-28 58 -29 99 -2 161 41 95 138 127 216 71z m4396 -108 c15 -7 39
-32 55 -55 34 -52 38 -135 8 -189 l-18 -35 29 -49 c17 -28 51 -87 78 -133 l47
-83 42 68 c114 186 121 202 118 278 -3 57 1 78 20 115 34 66 79 93 148 87 49
-4 58 -8 92 -47 59 -66 72 -154 33 -230 -7 -14 -21 -79 -30 -144 -17 -129 -68
-316 -115 -430 -116 -279 -333 -519 -540 -596 -51 -19 -58 -25 -69 -60 -14
-47 -53 -95 -92 -116 l-29 -15 0 -899 0 -900 -70 0 -70 0 0 900 0 899 -30 16
c-36 19 -86 85 -95 126 -5 24 -18 35 -73 61 -330 158 -571 558 -633 1050 -8
67 -13 80 -43 110 -76 76 -67 198 18 256 66 45 161 20 207 -54 19 -31 21 -45
16 -104 l-6 -69 71 -123 c38 -68 77 -134 85 -147 15 -23 16 -20 77 105 l62
128 -18 35 c-24 46 -23 105 2 155 26 52 61 77 116 84 101 11 177 -99 145 -213
-10 -38 -8 -43 71 -183 l82 -144 63 128 63 128 -20 41 c-50 102 -2 235 95 264
33 10 66 5 108 -16z m-2201 -1339 c77 -39 104 -158 58 -255 -11 -24 -6 -36 60
-152 39 -70 74 -128 78 -131 8 -5 166 261 165 278 -1 6 -3 32 -6 58 -7 62 9
111 53 160 31 35 42 41 86 45 139 14 218 -136 152 -287 -9 -19 -20 -78 -26
-130 -40 -338 -203 -683 -414 -874 -69 -62 -173 -129 -252 -161 -38 -16 -51
-27 -57 -49 -11 -41 -54 -99 -89 -119 l-30 -18 0 -900 0 -899 -75 0 -75 0 0
898 0 899 -40 32 c-39 31 -80 95 -80 126 0 9 -26 27 -64 44 -282 128 -512 452
-601 849 -13 59 -30 148 -37 197 -11 77 -17 93 -39 112 -59 50 -73 137 -34
212 34 67 134 92 203 49 57 -35 87 -127 63 -191 -8 -20 4 -47 76 -173 47 -82
87 -151 89 -153 1 -2 31 53 66 122 l62 126 -17 36 c-54 114 19 245 137 245 34
0 46 -7 82 -44 49 -52 63 -104 44 -171 -10 -36 -9 -47 3 -66 9 -13 29 -49 46
-79 17 -30 46 -81 63 -112 18 -32 35 -58 38 -58 3 0 33 56 67 124 l62 124 -21
41 c-39 80 -16 194 48 236 55 36 97 38 156 9z"/>
<path d="M1491 5014 c-69 -58 -59 -181 18 -217 66 -32 132 19 138 105 8 111
-82 175 -156 112z"/>
<path d="M421 5004 c-51 -43 -54 -122 -6 -170 28 -28 79 -32 113 -8 26 18 52
65 52 94 0 52 -57 110 -109 110 -11 0 -33 -12 -50 -26z"/>
<path d="M2079 5017 c-32 -24 -59 -81 -59 -125 0 -82 50 -142 117 -142 104 0
146 172 61 252 -33 31 -89 38 -119 15z"/>
<path d="M990 5009 c-62 -22 -81 -132 -34 -188 20 -25 34 -31 64 -31 55 0 90
43 90 112 0 44 -4 54 -34 84 -36 36 -45 38 -86 23z"/>
<path d="M1264 3780 c-30 -12 -72 -65 -83 -107 -22 -80 29 -170 109 -194 33
-10 47 -9 85 6 160 61 118 307 -52 304 -21 0 -47 -4 -59 -9z"/>
<path d="M1280 2545 l0 -885 45 0 45 0 0 885 0 885 -45 0 -45 0 0 -885z"/>
<path d="M5889 4892 c-27 -24 -33 -37 -36 -83 -4 -45 -1 -60 19 -89 48 -70
128 -63 169 15 22 41 22 48 11 92 -24 91 -100 122 -163 65z"/>
<path d="M6504 4910 c-35 -14 -72 -68 -79 -113 -20 -133 116 -219 191 -121 57
74 35 198 -41 230 -39 16 -42 16 -71 4z"/>
<path d="M4828 4890 c-61 -48 -59 -141 5 -181 42 -26 84 -18 121 22 25 28 28
37 23 82 -3 39 -11 56 -31 74 -34 29 -84 30 -118 3z"/>
<path d="M5368 4871 c-30 -27 -33 -35 -33 -86 0 -51 3 -59 33 -86 41 -37 75
-37 112 0 53 52 52 131 -1 175 -40 34 -71 33 -111 -3z"/>
<path d="M5675 3666 c-152 -70 -110 -306 55 -306 86 0 150 69 150 161 0 106
-114 187 -205 145z"/>
<path d="M5680 2430 l0 -890 50 0 50 0 0 890 0 890 -50 0 -50 0 0 -890z"/>
<path d="M3698 3568 c-33 -28 -48 -63 -48 -116 0 -48 4 -58 34 -88 43 -43 83
-45 127 -6 55 49 54 159 -2 205 -25 20 -88 23 -111 5z"/>
<path d="M4290 3562 c-100 -50 -83 -241 25 -268 63 -16 134 58 135 140 0 48
-37 112 -74 130 -42 20 -43 20 -86 -2z"/>
<path d="M2618 3541 c-29 -26 -33 -35 -33 -81 0 -44 4 -55 28 -76 55 -47 112
-40 147 18 33 54 22 115 -28 156 -28 22 -79 14 -114 -17z"/>
<path d="M3180 3547 c-63 -49 -67 -142 -9 -196 56 -52 149 7 149 94 0 79 -88
143 -140 102z"/>
<path d="M3490 2334 c-97 -35 -140 -144 -91 -234 29 -56 76 -83 137 -78 62 5
97 29 125 86 48 98 -13 217 -117 227 -21 3 -46 2 -54 -1z"/>
<path d="M3480 1090 l0 -890 45 0 45 0 0 890 0 890 -45 0 -45 0 0 -890z"/>
</g>
</svg>
